HIERARCHY
ROOT root
{
	OFFSET 0.000000 0.000000 0.000000
	CHANNELS 6 Xposition Yposition Zposition Zrotation Yrotation Xrotation
	JOINT lhip
	{
		OFFSET 0.058581 -0.082280 -0.017664
		CHANNELS 3 Zrotation Yrotation Xrotation
		JOINT lknee
		{
			OFFSET 0.043451 -0.386469 0.008037
			CHANNELS 3 Zrotation Yrotation Xrotation
			JOINT lankle
			{
				OFFSET -0.014790 -0.426874 -0.037428
				CHANNELS 3 Zrotation Yrotation Xrotation
				JOINT ltoe
				{
					OFFSET 0.041054 -0.060286 0.122042
					CHANNELS 3 Zrotation Yrotation Xrotation
					End Site
					{
						OFFSET 0.000000 0.000000 0.000000
					}
				}
			}
		}
	}
	JOINT rhip
	{
		OFFSET -0.060310 -0.090513 -0.013543
		CHANNELS 3 Zrotation Yrotation Xrotation
		JOINT rknee
		{
			OFFSET -0.043257 -0.383688 -0.004843
			CHANNELS 3 Zrotation Yrotation Xrotation
			JOINT rankle
			{
				OFFSET 0.019056 -0.420046 -0.034562
				CHANNELS 3 Zrotation Yrotation Xrotation
				JOINT rtoe
				{
					OFFSET -0.034840 -0.062106 0.130323
					CHANNELS 3 Zrotation Yrotation Xrotation
					End Site
					{
						OFFSET 0.000000 0.000000 0.000000
					}
				}
			}
		}
	}
	JOINT lowerback
	{
		OFFSET 0.004439 0.124404 -0.038385
		CHANNELS 3 Zrotation Yrotation Xrotation
		JOINT upperback
		{
			OFFSET 0.004488 0.137956 0.026820
			CHANNELS 3 Zrotation Yrotation Xrotation
			JOINT chest
			{
				OFFSET -0.002265 0.056032 0.002855
				CHANNELS 3 Zrotation Yrotation Xrotation
				JOINT lowerneck
				{
					OFFSET -0.013390 0.211636 -0.033468
					CHANNELS 3 Zrotation Yrotation Xrotation
					JOINT upperneck
					{
						OFFSET 0.010113 0.088937 0.050410
						CHANNELS 3 Zrotation Yrotation Xrotation
						End Site
						{
							OFFSET 0.000000 0.000000 0.000000
						}
					}
				}
				JOINT lclavicle
				{
					OFFSET 0.071702 0.114000 -0.018898
					CHANNELS 3 Zrotation Yrotation Xrotation
					JOINT lshoulder
					{
						OFFSET 0.122921 0.045205 -0.019046
						CHANNELS 3 Zrotation Yrotation Xrotation
						JOINT lelbow
						{
							OFFSET 0.255332 -0.015649 -0.022946
							CHANNELS 3 Zrotation Yrotation Xrotation
							JOINT lwrist
							{
								OFFSET 0.265709 0.012698 -0.007375
								CHANNELS 3 Zrotation Yrotation Xrotation
								End Site
								{
									OFFSET 0.000000 0.000000 0.000000
								}
							}
						}
					}
				}
				JOINT rclavicle
				{
					OFFSET -0.082954 0.112472 -0.023707
					CHANNELS 3 Zrotation Yrotation Xrotation
					JOINT rshoulder
					{
						OFFSET -0.113228 0.046853 -0.008472
						CHANNELS 3 Zrotation Yrotation Xrotation
						JOINT relbow
						{
							OFFSET -0.260127 -0.014369 -0.031269
							CHANNELS 3 Zrotation Yrotation Xrotation
							JOINT rwrist
							{
								OFFSET -0.269108 0.006794 -0.006027
								CHANNELS 3 Zrotation Yrotation Xrotation
								End Site
								{
									OFFSET 0.000000 0.000000 0.000000
								}
							}
						}
					}
				}
			}
		}
	}
}
MOTION
Frames: 17
Frame Time: 0.033333
0.040881 0.270101 1.000166 91.532243 0.191466 110.972226 -0.525037 1.261197 -17.448458 5.234907 5.421505 -8.420486 -3.095890 5.623922 3.203016 0.000000 -0.000000 0.000000 -0.789908 -2.553496 -23.131822 -5.262087 -10.143503 -3.325519 6.313120 -9.386581 8.228179 0.000000 -0.000000 0.000000 4.520011 -1.899351 26.540827 0.609694 -2.385888 -8.845564 2.548774 0.109360 -7.597770 -4.115949 2.573230 -30.067849 -0.390969 -5.134598 -2.815365 -31.506060 -23.400122 2.204097 -43.228841 -22.278019 13.459457 3.717133 -20.530049 12.484507 -18.875910 -7.915233 15.289894 32.922027 25.432168 6.555371 39.478409 20.500207 14.563148 -8.354062 17.873119 4.136380 16.295171 2.182538 11.164863 
0.041223 0.270315 1.000253 91.498432 0.181005 110.954003 -0.555860 1.315399 -17.403726 5.212259 5.353181 -8.419812 -3.338375 5.689844 3.164571 0.000000 -0.000000 0.000000 -0.768458 -2.628493 -23.135400 -5.304783 -10.053221 -3.265120 6.526769 -9.450530 8.167655 0.000000 -0.000000 0.000000 4.502464 -1.862895 26.630853 0.623891 -2.385923 -8.838137 2.569945 0.167325 -7.654100 -4.201527 2.528110 -30.009007 -0.415984 -5.126867 -2.944599 -31.530135 -23.348873 2.127257 -43.324003 -22.198207 13.665549 3.769120 -20.478576 12.436610 -18.798651 -8.111913 15.092130 32.932344 25.361238 6.366913 39.579699 20.271142 14.754915 -8.468567 18.033879 4.252223 16.363947 2.229380 10.958584 
0.041373 0.270642 1.000249 91.483473 0.158113 110.991782 -0.590306 1.281396 -17.408029 5.193786 5.366670 -8.471580 -3.262317 5.729079 3.210382 0.000000 -0.000000 0.000000 -0.821589 -2.667281 -23.170386 -5.271842 -10.044488 -3.266509 6.540928 -9.450965 8.181065 0.000000 -0.000000 0.000000 4.514539 -1.860414 26.614858 0.617300 -2.367509 -8.821448 2.560344 0.194069 -7.651702 -4.229425 2.569343 -29.900191 -0.390013 -5.091930 -3.038161 -31.535559 -23.296192 2.081341 -43.286270 -22.164422 13.697494 3.647454 -20.521089 12.529016 -18.981146 -7.950180 14.945197 32.941133 25.311125 6.405309 39.612264 20.212669 14.788343 -8.496076 18.167573 4.154873 16.345277 2.206120 10.876984 
0.041371 0.270847 1.000166 91.491864 0.158046 111.053580 -0.588387 1.282922 -17.494784 5.158914 5.373076 -8.424387 -3.244165 5.683016 3.159770 0.000000 -0.000000 0.000000 -0.821955 -2.647659 -23.257596 -5.310940 -10.053574 -3.223009 6.563822 -9.464604 8.156727 0.000000 -0.000000 0.000000 4.526177 -1.872797 26.538504 0.636267 -2.333243 -8.752981 2.566833 0.243421 -7.621860 -4.270380 2.615694 -29.816429 -0.404643 -5.030979 -3.092766 -31.498475 -23.282449 2.064561 -43.329346 -22.143157 13.733050 3.657548 -20.464959 12.549260 -18.943407 -8.007184 15.038103 32.968905 25.347445 6.432016 39.584243 20.224560 14.778057 -8.505716 18.051373 4.094302 16.313023 2.219842 10.873673 
0.041388 0.271086 1.000124 91.488727 0.132357 111.058892 -0.607547 1.248960 -17.491014 5.139485 5.385213 -8.440131 -3.228756 5.663962 3.197204 0.000000 -0.000000 0.000000 -0.854292 -2.676267 -23.276185 -5.322995 -10.057004 -3.193338 6.561196 -9.441444 8.156463 0.000000 -0.000000 0.000000 4.552188 -1.855268 26.591954 0.626694 -2.318452 -8.761812 2.560351 0.255005 -7.633187 -4.267106 2.658105 -29.720488 -0.433937 -4.940732 -3.001138 -31.514274 -23.277116 2.054651 -43.349816 -22.099984 13.745828 3.720867 -20.487767 12.467302 -18.848135 -8.093731 15.065532 32.930427 25.374880 6.457503 39.609072 20.219727 14.770838 -8.582574 17.994644 3.975347 16.271000 2.229872 10.835150 
0.041318 0.271277 1.000070 91.515546 0.114750 111.085512 -0.591983 1.256690 -17.498338 5.037112 5.400811 -8.479039 -3.200693 5.636747 3.153808 0.000000 -0.000000 0.000000 -0.864762 -2.698568 -23.317885 -5.339495 -10.099184 -3.170305 6.557691 -9.415187 8.130398 0.000000 -0.000000 0.000000 4.592437 -1.856371 26.661936 0.602437 -2.274727 -8.782542 2.551400 0.316064 -7.698172 -4.328676 2.657518 -29.563215 -0.441917 -4.940103 -2.975437 -31.598866 -23.322628 2.108306 -43.363876 -22.045920 13.733936 3.854984 -20.435010 12.355711 -18.823973 -8.015877 15.110521 32.839660 25.366718 6.478332 39.621961 20.187139 14.704766 -8.556434 17.964967 3.908140 16.336074 2.225704 10.653181 
0.041143 0.271465 1.000061 91.515821 0.110051 111.131490 -0.644325 1.239531 -17.602389 5.107263 5.385938 -8.412659 -3.198132 5.654802 3.161321 0.000000 -0.000000 0.000000 -0.878379 -2.721963 -23.404714 -5.334323 -10.131601 -3.126279 6.582060 -9.398853 8.135312 0.000000 -0.000000 0.000000 4.600407 -1.838532 26.716922 0.577960 -2.233513 -8.755344 2.551076 0.384950 -7.687679 -4.367927 2.661183 -29.527681 -0.391026 -4.955184 -3.130410 -31.612388 -23.356026 2.082493 -43.319309 -22.012330 13.725480 3.870374 -20.475884 12.368692 -19.005246 -7.816636 15.106127 32.805890 25.377423 6.479991 39.564977 20.201581 14.575125 -8.658897 18.000045 3.790983 16.523609 2.097046 10.645746 
0.041106 0.271578 0.999924 91.620470 0.096167 111.171203 -0.664346 1.202619 -17.660503 5.133024 5.329241 -8.421719 -3.188992 5.639632 3.215502 0.000000 -0.000000 0.000000 -0.900771 -2.727621 -23.424228 -5.341165 -10.154624 -3.137162 6.533605 -9.440005 8.082277 0.000000 -0.000000 0.000000 4.630695 -1.852008 26.767915 0.608591 -2.256135 -8.736858 2.576382 0.390826 -7.701970 -4.400007 2.725396 -29.434618 -0.382376 -4.903983 -3.259246 -31.637100 -23.364206 2.114766 -43.242110 -22.004392 13.694411 3.753640 -20.450535 12.390078 -19.060174 -7.802350 14.951714 32.797813 25.404416 6.493319 39.461185 20.224892 14.547217 -8.710590 18.032643 3.734556 16.330157 2.078688 10.757467 
0.040941 0.271849 0.999856 91.750494 0.061855 111.216258 -0.704576 1.140980 -17.749277 5.153232 5.279511 -8.405078 -3.187299 5.619789 3.208230 0.000000 -0.000000 0.000000 -0.956961 -2.761725 -23.465999 -5.317723 -10.222785 -3.119343 6.549215 -9.495133 8.085155 0.000000 -0.000000 0.000000 4.676316 -1.863618 26.813422 0.610146 -2.268678 -8.736029 2.585097 0.364913 -7.676475 -4.378720 2.756695 -29.545267 -0.405564 -4.804044 -3.297940 -31.640721 -23.390202 2.127961 -43.264090 -22.021120 13.714796 3.795317 -20.435181 12.318591 -18.981158 -7.929669 14.911627 32.803433 25.429141 6.457138 39.307413 20.267983 14.514813 -8.712104 17.990306 3.703172 16.187127 2.179973 10.913111 
0.040899 0.272087 0.999799 91.879637 0.049858 111.307986 -0.738014 1.070722 -17.784228 5.193905 5.237761 -8.562691 -3.175693 5.652902 3.307014 0.000000 -0.000000 0.000000 -0.995565 -2.753260 -23.539630 -5.301228 -10.287833 -3.127399 6.542937 -9.567356 8.096725 0.000000 -0.000000 0.000000 4.695965 -1.899866 26.848873 0.591956 -2.266439 -8.788865 2.587281 0.357751 -7.624556 -4.319667 2.907556 -29.688264 -0.333917 -4.610019 -3.321459 -31.574298 -23.359314 2.070537 -43.371587 -22.026891 13.816716 3.843206 -20.393532 12.405556 -18.884577 -8.022706 14.984240 32.848835 25.403495 6.363501 39.106425 20.341399 14.466293 -8.641093 18.010226 3.633965 16.150501 2.255322 10.797938 
0.040952 0.272182 0.999791 91.966355 0.057093 111.323348 -0.724438 0.985521 -17.750308 5.248401 5.195265 -8.686334 -3.179284 5.670876 3.392432 0.000000 -0.000000 0.000000 -1.009553 -2.727322 -23.547823 -5.298642 -10.346259 -3.094599 6.536573 -9.628317 8.084359 0.000000 -0.000000 0.000000 4.722303 -1.903533 26.877316 0.598966 -2.263686 -8.732918 2.589394 0.339974 -7.614469 -4.313704 2.928377 -29.701141 -0.316554 -4.608770 -3.374340 -31.585169 -23.413654 2.119652 -43.364693 -22.059796 13.770245 3.952153 -20.340909 12.238921 -18.802786 -8.061869 15.047859 32.796155 25.443584 6.368864 39.003600 20.433075 14.386248 -8.642965 18.052078 3.571411 16.117246 2.269090 10.706649 
0.041124 0.272196 0.999782 92.036666 0.092940 111.327044 -0.667922 1.001145 -17.759511 5.201575 5.193922 -8.671706 -3.207096 5.682155 3.361062 0.000000 -0.000000 0.000000 -0.975114 -2.706210 -23.504043 -5.292580 -10.406189 -3.132800 6.508196 -9.634776 8.053332 0.000000 -0.000000 0.000000 4.730848 -1.878596 26.900237 0.618661 -2.254686 -8.694502 2.615481 0.343573 -7.656344 -4.335091 2.978493 -29.661686 -0.284993 -4.606120 -3.323587 -31.607633 -23.460220 2.134599 -43.357032 -22.013693 13.737749 3.929299 -20.377223 12.212787 -18.951887 -7.929826 14.962560 32.774155 25.471736 6.395561 38.924273 20.441764 14.317960 -8.715189 18.089078 3.707167 16.295648 2.133175 10.829852 
0.041330 0.272287 0.999773 92.073132 0.097726 111.373842 -0.668950 1.036423 -17.841425 5.176693 5.226758 -8.600024 -3.224105 5.618985 3.316775 0.000000 -0.000000 0.000000 -0.948996 -2.717464 -23.543015 -5.324836 -10.411591 -3.129299 6.539590 -9.645707 8.065760 0.000000 -0.000000 0.000000 4.704592 -1.891754 26.847885 0.641446 -2.250967 -8.681874 2.636765 0.337845 -7.637039 -4.309967 2.903154 -29.545501 -0.348466 -4.668750 -3.394637 -31.620577 -23.377877 2.090154 -43.305406 -21.995000 13.738614 3.777868 -20.475941 12.280608 -18.854132 -8.008732 14.941495 32.695949 25.467219 6.327590 38.946356 20.562926 14.343120 -8.685251 18.028143 3.559673 16.125355 2.195342 10.820918 
0.041775 0.272512 0.999829 92.057380 0.104257 111.371173 -0.705947 1.062023 -17.824911 5.197314 5.236000 -8.570601 -3.229615 5.606562 3.297599 0.000000 -0.000000 0.000000 -0.959918 -2.707058 -23.570041 -5.358890 -10.398024 -3.017554 6.568941 -9.626470 8.044898 0.000000 -0.000000 0.000000 4.687944 -1.888868 26.891433 0.633480 -2.222917 -8.730860 2.639184 0.304345 -7.624339 -4.283443 2.892250 -29.533537 -0.405873 -4.649037 -3.371773 -31.590936 -23.349804 2.103915 -43.328543 -21.931114 13.780242 3.786928 -20.605836 12.361717 -18.684613 -8.097796 14.999132 32.657383 25.483959 6.292504 38.962437 20.606057 14.363477 -8.673889 18.012610 3.576253 15.954306 2.320872 10.846795 
0.042197 0.272713 0.999782 92.068257 0.117762 111.393833 -0.711733 1.077878 -17.823374 5.193065 5.284968 -8.575939 -3.239559 5.599701 3.290519 0.000000 -0.000000 0.000000 -0.959209 -2.685334 -23.575419 -5.379771 -10.390946 -2.985681 6.541983 -9.645331 8.014454 0.000000 -0.000000 0.000000 4.663856 -1.926065 26.879606 0.650151 -2.233536 -8.762272 2.646759 0.317548 -7.607552 -4.270576 2.900139 -29.519243 -0.498825 -4.603127 -3.406211 -31.551198 -23.237044 2.036917 -43.352855 -21.906274 13.824341 3.727429 -20.830025 12.489330 -18.811554 -8.079063 14.850440 32.638766 25.407098 6.217441 38.999569 20.667664 14.413820 -8.688210 18.116356 3.608019 16.124239 2.281813 10.762700 
0.042755 0.272820 0.999901 92.039584 0.136543 111.299225 -0.695438 1.114675 -17.627346 5.161133 5.290632 -8.664304 -3.235073 5.615442 3.236560 0.000000 -0.000000 0.000000 -0.950018 -2.693406 -23.460334 -5.385878 -10.394236 -2.947214 6.561127 -9.597717 8.004754 0.000000 -0.000000 0.000000 4.632833 -1.911852 26.930851 0.646172 -2.256267 -8.676051 2.654645 0.344008 -7.622205 -4.317671 2.966777 -29.500147 -0.532963 -4.564429 -3.615452 -31.502326 -23.257127 1.970436 -43.330817 -21.818497 13.868386 3.595923 -21.010259 12.508165 -18.832436 -8.109051 14.767471 32.655178 25.411199 6.179183 39.009368 20.630576 14.418471 -8.766118 18.288135 3.487800 16.095214 2.194220 10.828292 
0.043175 0.273024 0.999980 91.977605 0.171590 111.295203 -0.694514 1.162888 -17.579645 5.174070 5.260676 -8.683251 -3.235895 5.628960 3.247490 0.000000 -0.000000 0.000000 -0.935057 -2.714909 -23.466970 -5.350627 -10.383304 -2.883072 6.560486 -9.540788 7.962857 0.000000 -0.000000 0.000000 4.616145 -1.898729 26.877189 0.653826 -2.255600 -8.593500 2.668768 0.332284 -7.647531 -4.322465 3.021725 -29.361637 -0.554355 -4.410274 -4.010150 -31.513303 -23.212687 1.989442 -43.298267 -21.743877 13.923027 3.534241 -21.282358 12.605928 -18.989755 -8.046261 14.589647 32.676081 25.415034 6.185514 38.996242 20.657526 14.429739 -8.770412 18.342053 3.376456 16.079636 2.225902 10.792472 
